<?xml version="1.0" encoding="utf-8"?>
<!-- Generator: Adobe Illustrator 21.0.0, SVG Export Plug-In . SVG Version: 6.00 Build 0)  -->
<svg version="1.1" id="Layer_1" xmlns="http://www.w3.org/2000/svg" xmlns:xlink="http://www.w3.org/1999/xlink" x="0px" y="0px"
	 viewBox="0 0 41 34" style="enable-background:new 0 0 41 34;" xml:space="preserve">
<style type="text/css">
	.st0{fill:none;stroke:#081D4A;stroke-miterlimit:10;}
	.st1{fill:#081D4A;}
	.st2{fill:none;stroke:#081D4A;stroke-width:0.25;stroke-miterlimit:10;}
	.st3{fill:none;stroke:#FFFFFF;stroke-width:0.15;stroke-miterlimit:10;}
</style>
<g>
	<g>
		<g>
			<g>
				<path class="st0" d="M32.9,15.8c-1.3,0.9-4,3.2-8.8,5.6c-2.1,1-5.1,2.4-8.6,2.9c-2.7,0.3-3.7,0-3.8-0.3c0-0.1,0.1-0.5,0-0.5
					s-0.2,0.3-0.5,0.3c-0.8-0.3-2.1-0.9-2.4-1.5c-0.1-0.2,0.1-0.3-0.1-0.6c-0.2-0.1-0.9-0.8-1.2-1.4C7.3,20,7.5,20,7.4,19
					c-0.1-1.3-0.5-1.6-0.1-2.2c0.1-0.3,0.3-0.3,0.5-0.7c0.1-0.5-0.2-0.8-0.2-1.3c0-0.7,0.6-0.9,1.2-1.6c0.7-0.9,0.5-1.5,0.9-2.8
					s1.4-2.1,3.1-3.7c0.9-0.8,1.7-1.5,2.8-2.2c3.6-2.1,6.3-1.5,10.3-0.8c0.5,0.1,0.9,0.6,1.3,1.2c0.1,0.1,1-0.2,1.7,0
					c1,0.3,1.8,1.8,2.2,2.1c0.2,0.2,1.2,0,2,0.5c1.5,0.7,1.7,2.9,1.8,3.2C34.7,12.9,33.1,15.5,32.9,15.8z"/>
				<path class="st1" d="M14.2,7l3.2-2c0.6-0.2,2.3-0.2,2.3-0.2l0.7,0.3l2.8-0.2l0.3,1.2l1.2,0.2c0,0,0.3,0.5,0.8,0.8
					c0.8,0.6,1.8,0.3,2.7,0.3c0.5,0-0.1,0.2,1,0.6c0.5,0.1,1.5,0.5,1.5,0.3c0-0.3-0.1-0.8,0-0.8c0.1,0,1.3,2.9,1.3,2.9l-1.8-1.2
					l-3-0.8l-0.6-0.6l-0.8,0.1l-1.4-0.6L23.9,7L23,6.4L21.8,6h-1.2l-1.2-0.7l-1.6,0.1L14.2,7z"/>
				<path class="st1" d="M24.9,18.3L24.2,18L24,16.5l-1.3,0.2l-0.8,0.5c0,0-1.6-0.6-3.2-0.7c-1,0-1.8,0.1-1.8,0.1l-1.7-0.7l-0.5,0.2
					l-0.9,0.1l-0.1-1l-1.2-0.9l-1.7-0.7l3,3.2h2.2l0.3-0.2l0.9,0.8l3-0.2l1.4,0.5l2.2-0.7c0,0-0.2,0.9-0.1,1.3
					C23.9,18.8,24.9,18.3,24.9,18.3z"/>
				<path class="st1" d="M21.2,20.7l-4.6,1l-1,0.2l0.1,0.3l2.8-1.5c0,0,0.8,0.3,1.2,0.1c0.2-0.1,0.2-0.3,0.3-0.5
					C20.4,20.3,21.2,20.7,21.2,20.7z"/>
				<path class="st1" d="M29.9,15.1l-2-0.9c0,0,0.9-0.5,1.5,0C29.9,14.4,29.9,15.1,29.9,15.1z"/>
				<path class="st1" d="M14.4,22.2l-2.2,0.1l-0.8-1.3h-0.8c0,0-0.7-0.3-0.7-0.6c0-0.1,0.2-0.1,0.1-0.2c0-0.1-0.3-0.2-0.3-0.2H9.3
					l-0.3-0.5c0-0.1-0.1-1-0.1-1H9l0.6,1h0.3l0.6,0.8l1.5,0.3l0.8,1l1.4-0.1L14.4,22.2z"/>
				<path class="st0" d="M35.1,16.3c0-0.2-0.1-0.3-0.3-0.8c-0.1-0.2-0.2-0.6-0.1-0.8c0-0.3,0.2-0.5,0.2-0.8c0.1-0.2,0.1-0.7-0.5-2.1
					c0-0.1-0.1-0.1-0.1-0.2c-0.2,2-1.4,3.8-1.5,3.9c-1.3,0.9-4,3.2-8.8,5.6c-2.1,1-5.1,2.4-8.6,2.9c0,0-1.3,0.3-3,0
					c-0.3,0-0.7-0.1-0.8-0.5c-0.1-0.2,0-0.5,0-0.5c-0.1,0-0.2,0.3-0.5,0.3c-0.2-0.1-0.6-0.2-0.9-0.3c0.3,0.7,0.8,1.2,1,1.5
					c-0.3,0.6,0.6,1.4,0.6,1.5c0.1,0.1,0.7-0.2,0.8-0.1c0.1,0.1-0.3,0.6-0.2,0.8c0.1,0.1,0.3,0.1,0.8,0.1c0.6,0,0.9,0.2,1.5,0.3
					c0.8,0.3,0.8,0.5,1.4,0.7c0.9,0.3,1.4-0.1,2.3-0.1c1,0,1.5,0.6,2.3,1c2.3,1,5.4-0.5,6.9-1.6c1.7-1.3,1.3-2,3.3-3.5
					c0.5-0.3,1.4-0.9,2.3-2.1c0.5-0.7,0.7-1.2,0.8-1.3c0.1-0.5,0.2-0.9,0.5-2.1c0.2-1,0.1-0.9,0.2-1.3
					C35.1,16.9,35.2,16.7,35.1,16.3z"/>
				<path class="st1" d="M27.7,20.6L26.9,21l0.2,0.8l-0.3,0.9v0.7l-0.6,0.5L26,24.5l0.3,0.2l-0.2,0.5v0.7l-0.8,1.2l-0.1,0.6l0.7-0.5
					l0.5-0.7l0.5-0.3c0.2-0.2,0.3-1,0.3-1l-0.2-0.6l0.2-0.9v-0.9l0.5-0.7L27.7,20.6z"/>
				<path class="st1" d="M31.5,19.5c-0.2,0.1-0.2,1,0.1,1.2c0.2,0.1,0.6-0.2,0.7-0.5c0.2-0.7-0.7-1.5-0.7-1.4c0,0,0.5,0.6,0.2,0.8
					C31.8,19.6,31.6,19.5,31.5,19.5z"/>
				<polygon class="st1" points="15.9,25.2 15.1,25.8 15.8,25.9 15.9,26.5 16.7,26.8 17.3,26.4 18.2,26.5 18.7,25.9 20,26.3 
					20.7,26.8 20.7,27.3 21.7,27.6 20.5,27.9 19.9,27.1 19.1,26.6 18,27.2 17,27.2 15.4,26.6 14.1,26 14.7,25.5 15.1,25 17.1,25 
									"/>
				<path class="st1" d="M34,17.7V19l-0.6,1l-0.6,1l-0.2,0.2l-1,0.8h-1.3l-0.7,0.8l-0.2,0.9l-0.9,1.4l-0.7,0.5l2.1-2l0.2-1.2
					l0.8-0.1l1.4-0.6C32.8,22,33.9,17.7,34,17.7z"/>
				<path class="st2" d="M39,6.4c-2.1-4.1-8.8-5.3-16.4-3.3c0.9,0.1,1.8,0.3,2.9,0.5c0.5,0.1,0.9,0.6,1.3,1.2c0.1,0.1,1-0.2,1.7,0
					c1,0.3,1.8,1.8,2.2,2.1c0.2,0.2,1.2,0,2,0.5c1.5,0.7,1.7,2.9,1.8,3.2c0.3,2.3-1.3,5.1-1.5,5.2c-1.3,0.9-4,3.2-8.8,5.6
					c-2.1,1-5.1,2.4-8.6,2.9c-2.7,0.3-3.7,0-3.8-0.3c0-0.1,0.1-0.5,0-0.5c-0.1,0-0.2,0.3-0.5,0.3c-0.8-0.3-2.1-0.9-2.4-1.5
					C8.8,22,9,21.9,8.8,21.6c-0.2-0.1-0.9-0.8-1.2-1.4c-0.2-0.3,0-0.3-0.1-1.4c-0.1-1.3-0.5-1.6-0.1-2.2c0.1-0.3,0.3-0.3,0.5-0.7
					c0.1-0.5-0.2-0.8-0.2-1.3c0-0.7,0.6-0.9,1.2-1.6c0.7-0.9,0.5-1.5,0.9-2.8c0.1-0.5,0.3-0.8,0.6-1.2C4,13.9,0.7,20,2.8,24.2
					c2.7,5.3,13,5.8,23.2,0.8C35.8,20.2,41.8,11.9,39,6.4z"/>
				<path class="st3" d="M38.9,5.1c-3-6-13.8-6.7-24.1-1.7S-1.3,17.2,1.7,23.2s13.8,6.7,24.1,1.7S41.9,11.1,38.9,5.1z"/>
				<ellipse class="st1" cx="1.9" cy="20.8" rx="1.4" ry="1.4"/>
				<path class="st1" d="M7.8,28.6c-0.5,0.2-0.9,0-1-0.5c-0.2-0.5,0-0.9,0.5-1c0.5-0.2,0.9,0,1,0.5C8.3,27.9,8.1,28.4,7.8,28.6z"/>
			</g>
			<path class="st1" d="M32.4,9.7l0.5,0.7L32.5,11l0.3,0.5v0.8l-0.5,0.5l-0.3,0.9l0.1,0.7c0,0-0.2,0.6-1.5,0.8
				c0,0.2,0.3,0.5,0.3,0.5l0.7-0.5l0.9-1.2c0,0,0.3-0.8,0.5-1.3c0-0.2,0.1-2.1,0.1-2.1l-0.6-2.3l-0.9,0.1l0.8,0.3L32.4,9.7z"/>
			<path class="st1" d="M11.2,10.5l0.6,0.5l0.6-0.2l0.8-0.1l-0.1-0.2l0.7,0.5l1.1-0.1l0.7,0l0.6,0.4l1.2-0.3l0.6,0.3l-0.2-0.5
				l0.8,0.2l0.9,0.8l1.1-0.5l-1,0.1l-1-0.9l-1.3,0l-1.2,0.5l-0.1-0.6l-1,0.3l-0.9,0l-1.5-0.4c0,0-0.5,0.4-0.9,0.5
				C11.5,10.8,11.2,10.5,11.2,10.5z"/>
			<polygon class="st1" points="22.2,11.8 23.1,12.3 24.1,12.3 25.1,13.4 26.3,13.6 26.3,14.3 26.9,15 27.7,15 26.9,15.3 25.6,14 
				24.9,13.9 24,12.7 22.7,12.4 21.5,11.2 			"/>
		</g>
	</g>
</g>
</svg>
